<?xml version="1.0" encoding="utf-8"?>
<svg xmlns="http://www.w3.org/2000/svg" version="1.1" viewBox="0 0 100.04 99.955">
	<title>An image of four multiple m’s or inverted w’s.</title>
	<g stroke="#000" stroke-width="2.0059">
		<path d="m34.786 1.9259-33.69 34.366 33.958-25.373 15.061 27.069 18.964-25.392 29.796 24.809-30.067-35.732-18.051 27.317z"/>
		<path d="m34.786 1.9259-33.69 34.366 33.958-25.373 15.061 27.069 18.964-25.392 29.796 24.809-30.067-35.732-18.051 27.317z"/>
		<path d="m34.407 20.16-33.69 34.366 33.958-25.373 15.061 27.069 18.964-25.392 29.796 24.809-30.067-35.732-18.051 27.317z"/>
		<path d="m35.18 41.781-33.69 34.366 33.958-25.373 15.061 27.069 18.964-25.392 29.796 24.809-30.067-35.732-18.051 27.317z"/>
		<path d="m35.026 62.051-33.69 34.366 33.958-25.373 15.061 27.069 18.964-25.392 29.796 24.809-30.067-35.732-18.051 27.317z"/>
	</g>
</svg>
